<svg xmlns="http://www.w3.org/2000/svg" width="64" height="64"><path d="M36.618 21.231c0 7.253-5.653 13.132-12.627 13.132-6.974 0-12.627-5.88-12.627-13.132 0-7.253 5.653-13.132 12.627-13.132 6.974 0 12.627 5.88 12.627 13.132z" transform="matrix(1.98135 0 0 1.97902 -15.338 -5.844)" fill="#a05a2c" stroke="#000" stroke-width=".505"/><path d="M23.49 14.029c.574-5.597-.107-6.493-1.255-9.506 3.588 1.435 6.121 2.22 6.552 7.529 1.005-5.74.491-5.412-.37-10.147 3.158 3.013 6.528 3.737 6.097 8.472 2.163-2.639 2.458-3.278 3.06-7.66 2.568 2.984 4.661 7.246 2.22 11.407" fill="#a05a2c" stroke="#000"/><path d="M31.993 17.934C19.11 10.125 11.413 31.831 21.26 35.532c-16.486-1.76-9.147 16.747 4.247 21.17 3.633 1.2 8.532.813 13.883.177 15.248-1.814 22.309-34.556 4.596-24.218 9.81-14.758-6.28-18.63-11.992-14.727z" fill="#eaae85"/><path d="M29.8 24.983a1.01 1.01 0 11-2.02 0 1.01 1.01 0 012.02 0z" transform="matrix(3.3223 0 0 3.32079 -69.809 -56.856)" fill="#f01e07" stroke="#a05a2c" stroke-width=".301"/><path d="M30.783 34.951c.529 1.532.277 2.884-.562 3.02-.839.135-1.947-.998-2.475-2.53-.528-1.532-.277-2.884.562-3.02.839-.135 1.947.998 2.475 2.53z"/><path d="M16.837 42c5.084 4.543 16.287 1.366 30.73-4.681.568 13.109-11.575 25.816-30.73 4.68z" fill="#fff" stroke="#000"/><path d="M33.014 34.951c-.488 1.413-.202 2.668.636 2.804.84.135 1.914-.9 2.401-2.314.487-1.413.202-2.668-.637-2.804-.838-.135-1.913.901-2.4 2.314z"/><path d="M28.837 43.457l.395 7.992M37.76 40.887l.101 11.652" fill="none" stroke="#000"/><path transform="matrix(-3.22523 0 0 3.22378 131.543 -54.334)" d="M29.8 24.983a1.01 1.01 0 11-2.02 0 1.01 1.01 0 012.02 0z" fill="#f01e07" stroke="#a05a2c" stroke-width=".31"/><path d="M9.278 27.832c-8.543-3.652.34-17.114 7.365-11.404" fill="#a05a2c" stroke="#000" stroke-linecap="round"/><path d="M10.847 24.794c-4.755-3.287.791-8.1 3.934-5.535" fill="#eaae85"/><path d="M55.53 27.715c7.772-4.978-1.544-17.988-8.232-11.032" fill="#a05a2c" stroke="#000" stroke-linecap="round"/><path d="M53.528 24.92c4.238-3.307.392-8.22-4.168-5.969" fill="#eaae85"/></svg>