<svg width="200" height="200" viewBox="0 0 200 200" xmlns="http://www.w3.org/2000/svg"><path d="M13.97 103.942c.013.05.074.102.099.152.599 1.423 1.421 2.782 2.566 3.954.013.011.026.011.038.025.013.011.013.025.025.038l61.86 62.7c4.858 4.91 12.73 4.95 17.613.027 4.872-4.91 4.883-12.881.024-17.804l-40.22-40.77h118.748c6.878 0 12.458-5.64 12.458-12.589 0-6.95-5.58-12.591-12.458-12.591H55.313L96.62 45.786c4.896-4.897 4.933-12.855.1-17.804a12.332 12.332 0 0 0-8.857-3.738 12.388 12.388 0 0 0-8.756 3.639L16.722 90.244c-3.673 3.689-4.607 9.128-2.752 13.698zm0 0z"/></svg>