<svg viewBox="0 0 1045 1024" xmlns="http://www.w3.org/2000/svg"><path d="M326.857 799.429L298.286 828q-5.715 5.714-13.143 5.714T272 828L5.714 561.714Q0 556 0 548.571t5.714-13.142L272 269.143q5.714-5.714 13.143-5.714t13.143 5.714l28.571 28.571q5.714 5.715 5.714 13.143T326.857 324L102.286 548.571l224.571 224.572q5.714 5.714 5.714 13.143t-5.714 13.143zm337.714-609.715L451.43 927.43q-2.286 7.428-8.858 11.142T429.143 940l-35.429-9.714q-7.428-2.286-11.143-8.857t-1.428-14l213.143-737.715q2.285-7.428 8.857-11.143t13.428-1.428L652 166.857q7.429 2.286 11.143 8.857t1.428 14zm375.429 372L773.714 828q-5.714 5.714-13.143 5.714T747.43 828l-28.572-28.571q-5.714-5.715-5.714-13.143t5.714-13.143L943.43 548.57 718.857 324q-5.714-5.714-5.714-13.143t5.714-13.143l28.572-28.571q5.714-5.714 13.142-5.714t13.143 5.714L1040 535.429q5.714 5.714 5.714 13.142T1040 561.714z"/></svg>