<svg viewBox="0 0 1024 1024" xmlns="http://www.w3.org/2000/svg"><path d="M639.472 575.574c-16.41 0-32.819-6.263-45.347-18.788l-254.822-254.83c-25.054-25.038-25.054-65.654 0-90.69 25.05-25.052 65.641-25.052 90.692 0l254.826 254.83c25.054 25.036 25.054 65.652 0 90.69-12.526 12.525-28.937 18.788-45.35 18.788z"/><path d="M384.648 830.39c-16.41 0-32.818-6.264-45.346-18.79-25.054-25.037-25.054-65.653 0-90.689l254.823-254.815c25.054-25.052 65.64-25.052 90.695 0 25.054 25.036 25.054 65.652 0 90.69L429.993 811.599c-12.523 12.527-28.935 18.79-45.345 18.79z"/></svg>