<svg class="icon" viewBox="0 0 1024 1024" xmlns="http://www.w3.org/2000/svg" width="200" height="200"><defs><style/></defs><path d="M914.286 420.571v109.715q0 22.857-16.019 38.839t-38.838 16.018H621.714v237.714q0 22.857-16.018 38.839t-38.839 16.018H457.143q-22.857 0-38.839-16.018t-16.018-38.839V585.143H164.57q-22.857 0-38.838-16.018t-16.019-38.84V420.572q0-22.857 16.019-38.838t38.838-16.019h237.715V128q0-22.857 16.018-38.839t38.839-16.018h109.714q22.857 0 38.839 16.018T621.714 128v237.714H859.43q22.857 0 38.838 16.019t16.019 38.838z"/></svg>