<svg width="200" height="200" viewBox="0 0 200 200" xmlns="http://www.w3.org/2000/svg"><path d="M100 22.15c-42.928 0-77.852 34.925-77.852 77.854 0 42.924 34.924 77.846 77.852 77.846s77.852-34.922 77.852-77.846c0-42.929-34.924-77.854-77.852-77.854zm7.855 134.704H92.221V141.22h15.634v15.634zm24.786-69.704c-2.288 4.118-6.763 9.126-13.423 15.024-4.474 3.965-7.397 6.89-8.77 8.77-1.373 1.881-2.39 4.042-3.05 6.482-.662 2.44-1.043 6.406-1.144 11.897H93.06c-.051-1.83-.076-3.203-.076-4.118 0-5.388.762-10.04 2.288-13.956 1.117-2.948 2.923-5.922 5.414-8.923 1.83-2.185 5.122-5.377 9.876-9.57 4.754-4.195 7.842-7.538 9.266-10.03 1.423-2.49 2.136-5.21 2.136-8.16 0-5.338-2.086-10.029-6.254-14.07-4.17-4.043-9.279-6.063-15.329-6.063-5.847 0-10.728 1.83-14.643 5.49-3.915 3.661-6.482 9.38-7.702 17.16l-14.109-1.678c1.27-10.422 5.045-18.404 11.325-23.947 6.279-5.54 14.579-8.312 24.9-8.312 10.93 0 19.65 2.974 26.159 8.922 6.507 5.949 9.761 13.144 9.761 21.583 0 4.88-1.143 9.38-3.431 13.499z"/></svg>