<svg viewBox="0 0 1024 1024" xmlns="http://www.w3.org/2000/svg"><path d="M513.672 49.158c-256.358 0-464.178 207.819-464.178 464.176 0 256.358 207.82 464.177 464.177 464.177S977.85 769.693 977.85 513.334c0-256.357-207.82-464.176-464.177-464.176zm0 788.3c-30.94 0-56.02-25.08-56.02-56.02 0-30.94 25.081-56.021 56.02-56.021 30.94 0 56.021 25.08 56.021 56.02 0 30.94-25.081 56.021-56.02 56.021zm98.037-335.092c-55.397 37.21-54.02 117.088-54.02 117.088 0 24.31-19.657 44.087-43.967 44.087s-43.966-19.567-43.966-43.877c0-117.054 84.107-178.356 104.308-190.36 23.974-12.005 47.042-36.59 47.042-65.857 0-39.268-31.404-71.494-107.434-72.206-76.029.712-107.94 30.02-107.94 70.036 0 0-.026 1.332-.026 2.011 0 24.31-20.669 44.017-44.978 44.017s-45.004-19.707-45.004-44.017v-2.01c0-88.035 72.913-157.359 196.962-158.07 124.047.711 195.912 72.027 195.912 159.977-.001 66.673-33.364 99.666-96.89 139.18z"/></svg>