<svg width="200" height="200" viewBox="0 0 200 200" xmlns="http://www.w3.org/2000/svg"><path d="M182.924 117.857q0 .558-.112.781-7.142 29.911-29.91 48.494t-53.348 18.582q-16.295 0-31.53-6.138t-27.176-17.522L26.451 176.45q-2.12 2.12-5.022 2.12t-5.023-2.12-2.12-5.022v-50q0-2.902 2.12-5.023t5.023-2.12h50q2.901 0 5.022 2.12t2.12 5.023-2.12 5.022l-15.29 15.29q7.924 7.366 17.968 11.384T100 157.143q14.955 0 27.902-7.255t20.759-19.977q1.227-1.898 5.915-13.058.893-2.567 3.348-2.567h21.429q1.45 0 2.51 1.06t1.061 2.511zm2.79-89.286v50q0 2.902-2.12 5.023t-5.023 2.12h-50q-2.901 0-5.022-2.12t-2.12-5.023 2.12-5.022l15.402-15.402Q122.433 42.857 100 42.857q-14.955 0-27.902 7.255T51.34 70.089q-1.227 1.898-5.915 13.058-.893 2.567-3.348 2.567h-22.21q-1.45 0-2.511-1.06t-1.06-2.511v-.781Q23.55 51.451 46.43 32.868T100 14.286q16.295 0 31.696 6.194t27.344 17.466l14.51-14.397q2.12-2.12 5.021-2.12t5.023 2.12 2.12 5.022z"/></svg>