<svg width="200" height="200" viewBox="0 0 200 200" xmlns="http://www.w3.org/2000/svg"><path d="M166.295 147.545q0 4.464-3.125 7.589l-15.179 15.179q-3.125 3.125-7.59 3.125t-7.589-3.125L100 137.5l-32.813 32.813q-3.125 3.125-7.589 3.125t-7.59-3.125l-15.178-15.18q-3.125-3.124-3.125-7.588t3.125-7.59l32.813-32.812L36.83 74.33q-3.125-3.125-3.125-7.589t3.125-7.59l15.18-15.177q3.125-3.125 7.59-3.125t7.588 3.125L100 76.786l32.812-32.813q3.125-3.125 7.59-3.125t7.59 3.125l15.178 15.179q3.125 3.125 3.125 7.59t-3.125 7.588l-32.813 32.813 32.813 32.812q3.125 3.125 3.125 7.59z"/></svg>