<svg width="200.195" height="200" viewBox="0 0 200.1953125 200" xmlns="http://www.w3.org/2000/svg"><path d="M28.571 150q0-2.9-2.121-5.021t-5.021-2.122-5.022 2.122T14.286 150t2.121 5.021 5.022 2.122 5.021-2.122T28.571 150zm157.143-64.286q0-5.693-4.35-9.985t-9.935-4.3h-64.286q0-2.236 1.671-5.415t3.686-6.135 3.686-7.586 1.671-9.429q0-7.478-4.964-10.878T100 28.579q-2.679 0-10.043 15.514-2.678 4.914-4.128 7.257-4.465 7.143-12.5 16.186-7.922 9.043-11.272 11.828-7.7 6.365-15.628 6.365h-3.572v71.428h3.572q8.035 0 18.635 3.572t21.593 7.142 20.036 3.572q21.093 0 21.093-18.636 0-2.9-.557-6.25 3.35-1.786 5.3-5.857t1.95-8.2-2.008-7.7q5.915-5.579 5.915-13.279 0-2.792-1.115-6.192t-2.792-5.3h36.942q5.8 0 10.043-4.243t4.243-10.043zM200 85.6q0 11.721-8.429 20.2t-20.142 8.486h-18.865q-.45 6.921-4.128 13.278.335 2.343.335 4.8 0 11.272-6.7 19.865.115 15.514-9.485 24.5t-25.336 8.985q-14.843 0-35.936-7.7-18.3-6.585-24.885-6.585H14.286q-5.915 0-10.1-4.186T0 157.143V85.714q0-5.914 4.186-10.1t10.1-4.185h32.143q1.114 0 2.4-.5t2.621-1.565 2.514-2.007 2.679-2.514 2.286-2.4 2.121-2.4 1.564-1.9q7.257-8.257 11.165-14.4 1.45-2.343 3.685-6.922t4.129-8.035 4.521-7.029 6.136-5.521 7.757-1.95q13.95 0 23.05 7.478t9.093 21.093q0 7.586-2.457 14.286h41.743q11.607 0 20.085 8.486t8.486 19.978z"/></svg>