<svg width="200" height="200" viewBox="0 0 200 200" xmlns="http://www.w3.org/2000/svg"><path d="M195.138 171.55l-47.85-47.863c-.55-.562-1.175-.974-1.763-1.437 8.088-12.412 12.8-27.187 12.8-43.1 0-43.725-35.437-79.175-79.162-79.175C35.45-.012 0 35.438 0 79.163s35.463 79.162 79.163 79.162c15.912 0 30.7-4.725 43.125-12.812.45.587.875 1.187 1.412 1.75l47.863 47.875a16.65 16.65 0 0 0 11.787 4.875 16.65 16.65 0 0 0 11.788-4.875c6.487-6.513 6.487-17.075 0-23.588M79.163 133.325C49.3 133.325 25 109.025 25 79.163s24.313-54.175 54.163-54.175c29.862 0 54.162 24.312 54.162 54.175s-24.3 54.162-54.162 54.162"/></svg>