<svg viewBox="0 0 1171 1024" xmlns="http://www.w3.org/2000/svg"><path d="M0 512q0-74.313 29.11-141.97t77.971-116.59 116.59-77.97 141.97-29.111h438.857q74.313 0 141.97 29.11t116.59 77.971 77.97 116.59T1170.14 512t-29.11 141.97-77.97 116.59-116.59 77.97-141.97 29.111H365.64q-74.313 0-141.97-29.11T107.08 770.56 29.11 653.97 0 512zm804.571 292.571q59.466 0 113.445-23.113t93.403-62.537 62.538-93.403 23.113-113.445-23.113-113.444-62.538-93.404-93.403-62.537-113.445-23.113-113.444 23.113-93.404 62.537-62.537 93.404-23.113 113.444 23.113 113.445 62.537 93.403 93.404 62.537 113.444 23.113z"/></svg>