<svg viewBox="0 0 1024 1024" xmlns="http://www.w3.org/2000/svg"><path d="M960.09 224.02c0 11.455-8.916 20.364-20.372 20.364h-61.094v603.334c0 70.004-45.824 129.83-101.83 129.83H247.29c-56.007 0-101.83-57.28-101.83-127.289V244.39H84.364C72.909 244.39 64 235.482 64 224.026v-40.73c0-11.456 8.909-20.365 20.365-20.365h196.659l44.55-106.291C338.298 25.46 376.486 0 410.214 0H613.87c33.734 0 71.917 25.46 84.653 56.64l44.55 106.285h196.653c11.456 0 20.371 8.909 20.371 20.365v40.73zm-162.925 20.37h-570.24v603.335c0 30.547 17.184 48.371 20.365 48.371h529.504c3.187 0 20.37-17.818 20.37-48.371V244.39zM389.85 753.53c0 11.45-8.91 20.364-20.365 20.364h-40.73c-11.456 0-20.365-8.915-20.365-20.364V386.944c0-11.456 8.91-20.365 20.365-20.365h40.73c11.456 0 20.365 8.909 20.365 20.365V753.53zm264.755-590.605L624.058 88.46c-1.914-2.541-7.636-6.362-10.816-7.002H411.488c-3.82.64-8.909 4.455-10.816 7.002l-31.187 74.464h285.12zM552.775 753.53c0 11.45-8.916 20.364-20.372 20.364h-40.73c-11.455 0-20.364-8.915-20.364-20.364V386.944c0-11.456 8.909-20.365 20.365-20.365h40.73c11.455 0 20.37 8.909 20.37 20.365V753.53zm162.924 0c0 11.45-8.915 20.364-20.371 20.364h-40.723c-11.456 0-20.371-8.915-20.371-20.364V386.944c0-11.456 8.915-20.365 20.37-20.365h40.724c11.456 0 20.371 8.909 20.371 20.365V753.53z"/></svg>