<svg viewBox="0 0 1024 1024" xmlns="http://www.w3.org/2000/svg"><path d="M512 0C229.232 0 0 229.232 0 512c0 282.768 229.232 512 512 512 282.784 0 512-229.232 512-512C1024 229.232 794.784 0 512 0zm0 938.704c-103.856 0-199.52-34.992-277.328-93.456 57.712-5.424 164.32-29.744 165.328-136.56.288-31.632 21.968-46.576 0-69.008-22.432-22.944-34.752-70.208-44.8-115.008-1.872-8.304-7.472-13.664-14.08-18.784-27.552-7.808-48.112-37.68-48.112-73.568 0-18.48 5.664-35.184 14.688-48.32 1.536-7.072 2.704-13.936 2.688-20.304-.16-70.688-5.744-142.368 22.4-184 91.856-135.856 269.584-137.072 358.416 0 30.064 46.352 22.72 113.584 22.4 184-.032 6 .896 12.608 2.128 19.44 9.392 13.264 15.28 30.304 15.28 49.184 0 33.456-17.968 61.52-42.72 71.52-9.424 7.6-18.16 13.088-19.504 20.832-7.568 44.144-28.304 95.824-44.784 115.008-13.92 16.176-.32 37.376 0 69.008.976 106.816 107.6 131.136 165.312 136.56-77.776 58.464-173.504 93.456-277.312 93.456z"/></svg>