<svg viewBox="0 0 1024 1024" xmlns="http://www.w3.org/2000/svg"><path d="M1024 575.008v-128l-152.992-63.744c-4.256-12-8.736-23.616-14.24-35.008l61.76-153.76L828 104l-152.384 62.752C664 161.12 652.128 156.384 639.872 152L575.008 0h-128l-63.264 151.488c-12.736 4.512-24.992 9.248-37.12 15.008l-152.128-61.12L104 195.872l62.016 150.752c-6.016 12.384-10.88 24.992-15.52 38.016L0 448.992v128l150.624 62.752c4.64 12.992 9.632 25.632 15.616 38.016l-60.864 151.744L195.872 920l151.136-62.24c12.128 5.76 24.512 10.368 37.248 14.752L448.992 1024h128l63.36-152.256c12.128-4.512 24.128-9.248 35.616-14.752l153.504 61.504L919.968 828 856.96 675.264c5.376-11.488 9.76-23.136 14.016-35.008L1024 575.008zM511.008 704c-105.984 0-192-86.016-192-192s86.016-192 192-192 192 86.016 192 192-86.016 192-192 192z"/></svg>