<svg viewBox="0 0 1024 1024" xmlns="http://www.w3.org/2000/svg"><path d="M768 85.34q70.676 0 120.668 49.992T938.66 256t-49.992 120.668T768 426.66h-85.34v170.66H768q70.676 0 120.668 49.991T938.66 767.98t-49.992 120.668T768 938.639t-120.668-49.991T597.34 767.98v-85.34H426.68v85.34q0 70.676-49.991 120.668T256.02 938.639t-120.668-49.991T85.361 767.98t49.991-120.669T256.02 597.32h85.34V426.66h-85.34q-70.676 0-120.668-49.992T85.361 256t49.991-120.668T256.02 85.34t120.669 49.992T426.68 256v85.34h170.66V256q0-70.676 49.992-120.668T768 85.34zM341.34 768v-85.34H256q-35.328 0-60.334 25.006T170.66 768t25.006 60.334T256 853.34t60.334-25.006T341.34 768zM256 170.66q-35.328 0-60.334 25.006T170.66 256t25.006 60.334T256 341.34h85.34V256q0-35.328-25.006-60.334T256 170.66zm341.34 426.68V426.68H426.68v170.66h170.66zM768 682.66h-85.34V768q0 35.328 25.006 60.334T768 853.34t60.334-25.006T853.34 768t-25.006-60.334T768 682.66zm0-512q-35.328 0-60.334 25.006T682.66 256v85.34H768q35.328 0 60.334-25.006T853.34 256t-25.006-60.334T768 170.66z"/></svg>