<svg viewBox="0 0 1024 1024" xmlns="http://www.w3.org/2000/svg"><path d="M937.772 573.35H880.4c-25.349 0-45.898 20.615-45.898 46.047v310.822c0 19.075-15.413 34.534-34.423 34.534H616.488c-19.01 0-34.423-15.46-34.423-34.534V711.491H444.373V930.22c0 19.075-15.412 34.534-34.425 34.534H226.356c-19.01 0-34.42-15.46-34.42-34.534V619.396c0-25.431-20.55-46.048-45.899-46.048H88.665c-19.013 0-34.425-15.463-34.425-34.535 0-4.899 1.075-9.521 2.909-13.743a34.458 34.458 0 017.603-11.546L477.57 76.64c9.657-9.68 23.552-12.133 35.649-7.95 12.096-4.183 25.992-1.73 35.649 7.95l412.816 436.884a34.495 34.495 0 017.605 11.546c1.834 4.22 2.906 8.844 2.906 13.743 0 19.072-15.412 34.535-34.423 34.535z"/></svg>