<svg viewBox="0 0 1024 1024" xmlns="http://www.w3.org/2000/svg"><path d="M902.4 285.6c-40-68.8-95.2-124-164-164s-144.8-60-226.4-60-156.8 20-226.4 60.8-123.2 94.4-164 163.2-60 144.8-60 226.4 20 156.8 60.8 226.4 95.2 124 164 164 144.8 60.8 226.4 60.8 156.8-20 226.4-60.8 124-95.2 164-164S964 593.6 964 512c-1.6-81.6-21.6-156.8-61.6-226.4zm-331.2 480c0 31.2-23.2 56.8-51.2 56.8h-16.8c-28 0-51.2-25.6-51.2-56.8V482.4c0-31.2 23.2-56.8 51.2-56.8H520c28 0 51.2 25.6 51.2 56.8v283.2zm-60-424.8c-38.4 0-69.6-31.2-69.6-69.6s31.2-69.6 69.6-69.6c38.4 0 69.6 31.2 69.6 69.6s-31.2 69.6-69.6 69.6z"/></svg>