<svg viewBox="0 0 1171 1024" xmlns="http://www.w3.org/2000/svg"><path d="M658.286 512q0-59.465-23.113-113.445t-62.538-93.403-93.403-62.537-113.445-23.113-113.444 23.113-93.404 62.537-62.537 93.403T73.29 512t23.113 113.445 62.537 93.403 93.404 62.537 113.444 23.113 113.445-23.113 93.403-62.537 62.538-93.403T658.286 512zm438.857 0q0-59.465-23.113-113.445t-62.537-93.403-93.404-62.537-113.444-23.113h-220.6q68.024 51.42 107.74 128t39.717 164.571-39.717 164.572-107.74 128h220.6q59.465 0 113.444-23.114t93.404-62.537 62.537-93.403 23.113-113.445zm73.143 0q0 74.313-29.111 141.97t-77.97 116.59-116.59 77.97-141.97 29.111H365.787q-74.313 0-141.97-29.11t-116.59-77.971-77.97-116.59T.147 512t29.11-141.97 77.97-116.59 116.59-77.97 141.97-29.111h438.858q74.313 0 141.97 29.11t116.59 77.971 77.97 116.59 29.11 141.97z"/></svg>