<svg viewBox="0 0 1024 1024" xmlns="http://www.w3.org/2000/svg"><path d="M596.677 248.123c204.8 0 372.185 165.415 372.185 372.185S801.477 992.492 596.677 992.492H435.2c-15.754 0-25.6-11.815-25.6-27.569v-63.015c0-15.754 11.815-29.539 27.57-29.539h159.507c139.815 0 252.061-112.246 252.061-252.061S736.492 368.246 596.677 368.246H322.954s-15.754 0-21.662 1.97c-15.754 7.876-11.815 19.692 1.97 33.476l96.492 96.493c11.815 11.815 9.846 29.538-1.97 41.353l-43.322 43.324c-11.816 11.815-25.6 11.815-37.416 1.969l-256-256a24.96 24.96 0 010-35.446l254.03-254.031c11.816-11.816 31.509-11.816 41.355 0l41.354 41.354c11.815 11.815 11.815 31.507 0 41.354l-96.493 96.492c-11.815 11.815-11.815 25.6 7.877 25.6h13.785l273.723 1.97z"/></svg>