<svg xmlns="http://www.w3.org/2000/svg" viewbox="0 0 48 48" width="48" height="48"><path d="M17 7.9c.3-2.7-.4-3.4-1.1-5.7 2.3.6 4.6 1.8 5.4 3.6.3-.9.4-2.1-.6-5.6 2.5 1.5 5 2.4 5.5 5.8 1.4-1.6 1.4-3 2-5.1 1.9 1.8 3.4 3.9 3 7.1 1.8.2 3.5.8 5.1 2.9 6.4-3.3 12.1 5.2 6.7 10 9.4 35.6-45.7 36-37.4.1-6-3.8.5-13.2 6.3-10.1 1.1-1.8 3.5-2.8 5.1-3z"/><path fill="#9F5A2C" d="M17.8 8.7c.2-2.5.1-2.9-.6-5.1 2.2.6 4.1 3 4.2 4.7.4-.6 1.4-3.1.4-6.5 2.4 1.5 4.1 3 3.5 6.2 1.9-1.6 2.6-3.4 3.1-5.3 1.8 1.8 2 2.9 1.7 6 1.7.1 4.5 1.2 5.8 3.3 5.6-3.8 11.2 3.9 6.1 8.5 8.9 35-43.8 34.8-35.6-.1-5.8-3.6.4-11.7 5.5-8.4 1.2-1.8 4.5-3.2 5.9-3.3z"/><path fill="#E9AD84" d="M14.8 26.6C8 22 12.4 8.1 23.9 12.8c13-5 14.5 9 9.5 11.4C45.6 16.4 44.8 44 23.3 43.6c-13.1-.3-23.2-19.2-8.5-17z"/><path fill="#E7AB82" d="M10.5 13.9c-2.4-2.6-6.4 2.7-2.9 4.4.8-1.7 1.7-3.2 2.9-4.4zm27 0c2.4-2.6 6.4 2.7 2.9 4.4-.8-1.7-1.7-3.2-2.9-4.4z"/><path d="M23.4 40.8c-9.5-.5-11.8-9.1-11.6-9.7 0-.1.4-.5.8-.3 6.4 4 19.4-1.9 22.3-2.1.4 0 1.1.1 1.1.7-.2 6.3-3.4 11.9-12.6 11.4z"/><path fill="#0A0706" d="M22.8 28.3c-1.1.5-3.4-3.2-2-3.9 1.5-.8 3.1 3.4 2 3.9zm2 0c1.1.5 3.4-3.2 2-3.9-1.5-.8-3.1 3.4-2 3.9z"/><path d="M19.1 22.4c-4.1 0-4-6.1 0-6.1 4.1 0 4 6.1 0 6.1zm9.9 0c-4.1 0-4-6.1 0-6.1 4.2 0 4 6.1 0 6.1z"/><path fill="#EE1F08" d="M19.1 21.5c-2.9 0-2.8-4.3 0-4.3 2.9 0 2.8 4.3 0 4.3zm10 0c-2.9 0-2.8-4.3 0-4.3 2.9 0 2.8 4.3 0 4.3z"/><path fill="#FFF" d="M34.9 29.7c-.7-.1-5.9 1.5-6.7 1.8l.1 7.9c4.1-1.1 6.5-4.6 6.6-9.7zm-15 3.4c-1.6.2-4.5 0-6.9-1 .9 3.8 5 6.5 7 7l-.1-6zm7.3-1.3c-2.1.6-4.1 1.1-6.4 1.3l.1 6.3c2.7.9 6.3.3 6.4.3l-.1-7.9z"/></svg>
